<svg width="512" height="512" viewBox="0 0 512 512" fill="none" xmlns="http://www.w3.org/2000/svg">
  <defs>
    <linearGradient id="bg" x1="0" y1="0" x2="1" y2="1">
      <stop offset="0%" stop-color="#a5b4fc"/>
      <stop offset="50%" stop-color="#c7d2fe"/>
      <stop offset="100%" stop-color="#e0e7ff"/>
    </linearGradient>
    <linearGradient id="bell" x1="0" y1="0" x2="0" y2="1">
      <stop offset="0%" stop-color="#ffffff"/>
      <stop offset="100%" stop-color="#e0e7ff"/>
    </linearGradient>
    <filter id="shadow" x="-20%" y="-20%" width="140%" height="140%">
      <feDropShadow dx="0" dy="8" stdDeviation="12" flood-color="#6366f1" flood-opacity="0.25"/>
    </filter>
  </defs>
  <rect width="512" height="512" rx="112" fill="url(#bg)"/>
  <g filter="url(#shadow)">
    <path d="M256 128c-13.3 0-24 10.7-24 24v10.7c-55.3 11.3-96 60.3-96 117.3v40l-29.3 36c-5.3 6.7-0.7 16.7 8 16.7h282.6c8.7 0 13.3-10 8-16.7L376 320v-40c0-57-40.7-106-96-117.3V152c0-13.3-10.7-24-24-24z" fill="url(#bell)"/>
    <path d="M256 384c22.1 0 40-17.9 40-40h-80c0 22.1 17.9 40 40 40z" fill="url(#bell)"/>
  </g>
  <circle cx="256" cy="148" r="14" fill="#6366f1" opacity="0.6"/>
</svg>
